<svg width="32" height="31" viewBox="0 0 32 31" fill="none" xmlns="http://www.w3.org/2000/svg">
<path opacity="0.5" d="M31.9922 0.586229L24.1627 28.374C24.1229 28.5001 23.9637 28.5379 23.8708 28.4496L18.6291 23.4673L22.5571 9.54187C22.5969 9.41574 22.4774 9.30222 22.3447 9.34006L7.69446 13.0737L2.47928 8.11654C2.38638 8.02824 2.42619 7.87688 2.5589 7.83904L31.7798 0.384412C31.9125 0.359184 32.032 0.472707 31.9922 0.586229Z" fill="#00B37E"/>
<path opacity="0.5" d="M18.6289 23.4671L16.6118 30.6568C16.572 30.783 16.4128 30.8208 16.3199 30.7325L0.0506254 15.2809C-0.0422659 15.1926 -0.00245554 15.0412 0.130246 15.0034L7.69425 13.0735L18.6289 23.4671Z" fill="#00B37E"/>
<path d="M22.5565 9.54149L18.6285 23.4669L7.69385 13.0733L22.3441 9.33967C22.4768 9.30183 22.5963 9.41535 22.5565 9.54149Z" fill="#00B37E"/>
</svg>
